<svg width="49" height="50" viewBox="0 0 49 50" fill="none" xmlns="http://www.w3.org/2000/svg">
<path fill-rule="evenodd" clip-rule="evenodd" d="M17.8942 0.0771007C18.0516 -0.0854028 18.3268 0.0260461 18.3268 0.252301V10.6206H18.327V32.9194C18.327 37.1839 21.7841 40.641 26.0486 40.641H30.9296C35.1942 40.641 38.6513 37.1839 38.6513 32.9194V20.3794C38.6513 18.954 37.4958 17.7985 36.0704 17.7985H33.3368V24.3465C33.3369 24.355 33.3369 24.3636 33.3369 24.3721V33.3068C33.3369 34.6858 32.219 35.8038 30.84 35.8038H28.6345C28.5271 35.8106 28.4187 35.8141 28.3096 35.8141C28.2004 35.8141 28.0921 35.8106 27.9846 35.8038H25.7793C24.4003 35.8038 23.2824 34.6858 23.2824 33.3068V30.7971C23.2824 30.7937 23.2824 30.7903 23.2824 30.7869V13.2015C23.2824 11.7761 24.4379 10.6206 25.8632 10.6206H41.3275C45.3834 10.6206 48.6715 13.9086 48.6715 17.9646V32.1886C48.6715 36.9248 48.6715 50 28.3317 50C7.99184 50 7.99181 37.1429 7.99184 32.1886V17.9485H1.17539C0.952988 17.9485 0.839796 17.6812 0.994545 17.5215L17.8942 0.0771007Z" fill="url(#paint0_linear_222_333)"/>
<path fill-rule="evenodd" clip-rule="evenodd" d="M41.8245 10.6641C45.6482 10.9201 48.6705 14.1028 48.6705 17.9914V32.2154C48.6705 36.3674 48.6705 46.9278 34.9676 49.4701L34.5737 49.3726C22.1895 47.7691 19.1284 39.2429 18.9547 36.0032C20.139 38.7472 22.869 40.6679 26.0476 40.6679H30.9286C35.1932 40.6679 38.6503 37.2108 38.6503 32.9462V20.4062C38.6503 18.9809 37.4948 17.8254 36.0694 17.8254H33.3411C33.5279 14.1051 37.3751 10.7152 41.8245 10.6641Z" fill="url(#paint1_linear_222_333)"/>
<path fill-rule="evenodd" clip-rule="evenodd" d="M33.3384 17.8253C33.5251 14.105 37.3723 10.7152 41.8217 10.664C41.6572 10.653 41.4911 10.6473 41.3237 10.6473H25.8595C24.4341 10.6473 23.2786 11.8028 23.2786 13.2282V24.3826C23.2786 24.388 23.2786 24.3934 23.2786 24.3988V33.3335C23.2786 34.7126 24.3965 35.8305 25.7755 35.8305H27.9809C28.0883 35.8374 28.1967 35.8408 28.3058 35.8408C28.415 35.8408 28.5234 35.8374 28.6308 35.8305H30.8362C32.2152 35.8305 33.3331 34.7126 33.3331 33.3335V24.3988C33.3331 24.3924 33.3331 24.3861 33.3331 24.3797V17.8253L33.3384 17.8253Z" fill="url(#paint2_linear_222_333)"/>
<defs>
<linearGradient id="paint0_linear_222_333" x1="10.6709" y1="3.40658" x2="44.2047" y2="49.9796" gradientUnits="userSpaceOnUse">
<stop stop-color="#00FE9F"/>
<stop offset="1" stop-color="#2931FE"/>
</linearGradient>
<linearGradient id="paint1_linear_222_333" x1="42.3914" y1="15.5868" x2="21.398" y2="40.7413" gradientUnits="userSpaceOnUse">
<stop stop-color="#5A0DFF"/>
<stop offset="0.295882" stop-color="#0D11FF"/>
<stop offset="1" stop-color="#0692FF"/>
</linearGradient>
<linearGradient id="paint2_linear_222_333" x1="23.2786" y1="31.9256" x2="39.1161" y2="17.5466" gradientUnits="userSpaceOnUse">
<stop stop-color="#2931FD"/>
<stop offset="0.695207" stop-color="#7F38FE"/>
<stop offset="1" stop-color="#9938FA"/>
</linearGradient>
</defs>
</svg>
